<svg width="21" height="22" viewBox="0 0 21 22" fill="none" xmlns="http://www.w3.org/2000/svg">
    <path d="M10.4995 21.5005C16.2988 21.5005 21 16.7993 21 11C21 5.20073 16.2988 0.499512 10.4995 0.499512C4.70025 0.499512 -0.000976562 5.20073 -0.000976562 11C-0.000976562 16.7993 4.70025 21.5005 10.4995 21.5005Z" fill="url(#paint0_radial_10_427)"/>
    <path opacity="0.15" d="M10.4995 21.5005C4.7094 21.5005 -0.000976562 16.7901 -0.000976562 11C-0.000976562 5.20992 4.7094 0.499512 10.4995 0.499512C16.2896 0.499512 21 5.20992 21 11C21 16.7901 16.2896 21.5005 10.4995 21.5005ZM10.4995 1.20113C5.09431 1.20113 0.69724 5.59822 0.69724 11.0034C0.69724 16.4086 5.09431 20.8057 10.4995 20.8057C15.9047 20.8057 20.3018 16.4052 20.3018 11C20.3018 5.59478 15.9047 1.20113 10.4995 1.20113Z" fill="black"/>
    <path d="M14.8491 8.77939C15.0432 8.84071 15.2407 8.88158 15.4111 8.95985C16.2081 9.32432 16.3443 10.2882 15.6903 10.9353C15.3327 11.2895 14.8832 11.4496 14.3892 11.4803C13.8716 11.5109 13.3947 11.4088 12.9383 11.2521C12.39 11.0613 11.8791 10.8127 11.3955 10.5198C11.3887 10.5164 11.3887 10.5096 11.3784 10.496C11.5556 10.4449 11.7326 10.4006 11.9063 10.3461C12.5263 10.1485 13.1189 9.89312 13.5991 9.4503C13.657 9.39585 13.6944 9.32432 13.7422 9.25961C13.6638 9.25278 13.5889 9.23917 13.5105 9.24261C13.0064 9.27327 12.533 9.44356 12.0766 9.6649C11.7973 9.80115 11.5351 9.97149 11.266 10.1247C11.249 10.135 11.2286 10.1452 11.2115 10.1588C11.2013 10.1553 11.1911 10.152 11.1775 10.1485C11.2899 9.77393 11.3955 9.39924 11.5215 9.028C11.6918 8.52734 11.9234 8.04373 12.2673 7.59751C12.591 7.18543 12.9962 6.87546 13.5378 6.74604C14.328 6.55531 15.0636 6.98443 15.1658 7.68944C15.2271 8.0846 15.0977 8.44219 14.8491 8.77939Z" fill="#111111"/>
    <path d="M6.67491 12.4436C6.48078 12.3824 6.28327 12.3415 6.11298 12.2632C5.31595 11.8987 5.17971 10.9349 5.83366 10.2877C6.19129 9.93352 6.64086 9.7734 7.13474 9.74274C7.65244 9.71208 8.12923 9.81427 8.58567 9.971C9.13399 10.1617 9.64491 10.4103 10.1285 10.7032C10.1354 10.7066 10.1354 10.7134 10.1456 10.7271C9.96845 10.7782 9.79133 10.8225 9.61769 10.8769C8.99774 11.0745 8.40515 11.33 7.92493 11.7727C7.86701 11.8272 7.82952 11.8988 7.78186 11.9635C7.86018 11.9702 7.93511 11.9839 8.01347 11.9805C8.51757 11.9498 8.99096 11.7795 9.4474 11.5581C9.72662 11.4219 9.98889 11.2516 10.2579 11.0983C10.275 11.0881 10.2954 11.0779 10.3125 11.0643C10.3226 11.0677 10.3329 11.071 10.3466 11.0745C10.2341 11.4492 10.1285 11.8238 10.0025 12.1951C9.83221 12.6957 9.60064 13.1794 9.25662 13.6256C8.93304 14.0377 8.52774 14.3476 7.98625 14.477C7.19601 14.6677 6.46034 14.2386 6.3582 13.5336C6.29349 13.1385 6.4229 12.7808 6.67491 12.4436Z" fill="#111111"/>
    <path d="M8.92939 6.52391C8.99071 6.32979 9.03159 6.13223 9.10991 5.96193C9.47432 5.16495 10.4382 5.02871 11.0854 5.68266C11.4396 6.0403 11.5996 6.48986 11.6303 6.98374C11.661 7.50145 11.5588 7.97823 11.4021 8.43467C11.2114 8.98299 10.9628 9.49392 10.6698 9.97753C10.6664 9.98436 10.6596 9.98436 10.646 9.99458C10.5949 9.81745 10.5506 9.64033 10.4961 9.4666C10.2986 8.84675 10.0431 8.25416 9.60039 7.77389C9.54586 7.71601 9.47432 7.67852 9.40961 7.63086C9.40283 7.70918 9.38922 7.78411 9.39261 7.86247C9.42327 8.36657 9.59356 8.83992 9.81491 9.29636C9.95115 9.57563 10.1215 9.83789 10.2747 10.1069C10.285 10.124 10.2952 10.1444 10.3088 10.1615C10.3054 10.1717 10.302 10.1819 10.2986 10.1955C9.92393 10.0831 9.54925 9.97753 9.178 9.8515C8.67734 9.68121 8.19373 9.4496 7.74751 9.10558C7.33544 8.78204 7.02546 8.37674 6.89605 7.83525C6.70536 7.04506 7.13448 6.30935 7.83953 6.20715C8.23461 6.14588 8.5922 6.2753 8.92939 6.52391Z" fill="#111111"/>
    <path d="M12.591 14.699C12.5297 14.8931 12.4888 15.0906 12.4105 15.2609C12.046 16.0579 11.0822 16.1942 10.435 15.5402C10.0808 15.1826 9.92072 14.733 9.89006 14.2391C9.85945 13.7214 9.9616 13.2446 10.1183 12.7882C10.3091 12.2399 10.5577 11.729 10.8506 11.2453C10.8539 11.2385 10.8608 11.2385 10.8744 11.2283C10.9255 11.4054 10.9698 11.5825 11.0243 11.7562C11.2218 12.3761 11.4772 12.9688 11.92 13.4489C11.9745 13.5068 12.046 13.5443 12.1108 13.592C12.1176 13.5136 12.1312 13.4387 12.1278 13.3604C12.0971 12.8563 11.9268 12.3829 11.7055 11.9265C11.5693 11.6472 11.3989 11.3849 11.2456 11.1159C11.2355 11.0989 11.2252 11.0785 11.2116 11.0614C11.215 11.0512 11.2184 11.041 11.2218 11.0273C11.5965 11.1398 11.9712 11.2453 12.3424 11.3714C12.843 11.5417 13.3267 11.7733 13.7729 12.1172C14.185 12.4408 14.495 12.8461 14.6244 13.3877C14.8151 14.1778 14.3859 14.9135 13.6809 15.0157C13.2892 15.077 12.9282 14.9476 12.591 14.699Z" fill="#111111"/>
    <path d="M9.38927 13.9113L7.89063 16.5339C7.80209 16.6906 7.87707 16.8915 8.0507 16.946L8.37773 17.0516C8.53097 17.1027 8.69444 17.0142 8.73875 16.8609L9.57661 13.9897C9.6107 13.8739 9.45054 13.8057 9.38927 13.9113Z" fill="#111111"/>
    <defs>
        <radialGradient id="paint0_radial_10_427" cx="0" cy="0" r="1" gradientUnits="userSpaceOnUse" gradientTransform="translate(17.2939 16.0958) rotate(-135) scale(17.8345)">
            <stop offset="0.2" stop-color="#7FFF47"/>
            <stop offset="0.55" stop-color="#F9FF20"/>
            <stop offset="0.8" stop-color="#FFDAC0"/>
            <stop offset="1" stop-color="#FC76E3"/>
        </radialGradient>
    </defs>
</svg>
