<svg width="23" height="23" viewBox="0 0 23 23" fill="none" xmlns="http://www.w3.org/2000/svg">
<path d="M6.22241 9.03929C6.22241 8.29266 6.51901 7.57661 7.04696 7.04866C7.5749 6.52072 8.29095 6.22412 9.03758 6.22412H18.185C18.5547 6.22412 18.9208 6.29694 19.2623 6.43841C19.6039 6.57989 19.9142 6.78725 20.1756 7.04866C20.4371 7.31008 20.6444 7.62042 20.7859 7.96197C20.9274 8.30352 21.0002 8.66959 21.0002 9.03929V18.1867C21.0002 18.5564 20.9274 18.9225 20.7859 19.2641C20.6444 19.6056 20.4371 19.9159 20.1756 20.1774C19.9142 20.4388 19.6039 20.6461 19.2623 20.7876C18.9208 20.9291 18.5547 21.0019 18.185 21.0019H9.03758C8.66789 21.0019 8.30181 20.9291 7.96026 20.7876C7.61871 20.6461 7.30837 20.4388 7.04696 20.1774C6.78554 19.9159 6.57818 19.6056 6.4367 19.2641C6.29523 18.9225 6.22241 18.5564 6.22241 18.1867V9.03929Z" stroke="#808080" stroke-width="2.11111" stroke-linecap="round" stroke-linejoin="round"/>
<path d="M3.06822 16.5002C2.74417 16.316 2.47463 16.0494 2.28701 15.7274C2.09938 15.4053 2.00036 15.0394 2 14.6667V4.11111C2 2.95 2.95 2 4.11111 2H14.6667C15.4583 2 15.889 2.40639 16.25 3.05556" stroke="#808080" stroke-width="2.11111" stroke-linecap="round" stroke-linejoin="round"/>
</svg>
