<svg width="19" height="19" viewBox="0 0 19 19" fill="none" xmlns="http://www.w3.org/2000/svg">
<path d="M4.91773 8.70001C5.35939 9.14167 5.35939 9.85775 4.91773 10.2994L0.799705 14.4174C0.35804 14.8591 0.358039 15.5752 0.799703 16.0168L2.98292 18.2001C3.42458 18.6417 4.14066 18.6417 4.58233 18.2001L8.70035 14.082C9.14201 13.6404 9.85809 13.6404 10.2998 14.082L14.4178 18.2001C14.8594 18.6417 15.5755 18.6417 16.0172 18.2001L18.2004 16.0168C18.6421 15.5752 18.6421 14.8591 18.2004 14.4174L14.0824 10.2994C13.6407 9.85775 13.6407 9.14167 14.0824 8.70001L18.2001 4.58233C18.6417 4.14066 18.6417 3.42458 18.2001 2.98292L16.0168 0.799704C15.5752 0.35804 14.8591 0.35804 14.4174 0.799705L10.2998 4.91739C9.85809 5.35905 9.14201 5.35905 8.70035 4.91739L4.58267 0.799704C4.141 0.35804 3.42492 0.35804 2.98326 0.799704L0.800043 2.98292C0.358378 3.42458 0.35838 4.14066 0.800044 4.58233L4.91773 8.70001Z" fill="black"/>
</svg>
