<svg width="309" height="72" viewBox="0 0 309 72" fill="none" xmlns="http://www.w3.org/2000/svg">
<path d="M46.2521 48.9153L25.1985 38.7006L20.0005 54.4632L41.0541 64.678L46.2521 48.9153Z" fill="#533BEB"/>
<path d="M63.5604 0.000244141H42.5292C40.2061 0.000244141 37.8355 1.81929 37.2342 4.0632L20.2511 67.4453C19.6498 69.6892 21.0456 71.5083 23.3687 71.5083H40.1938C42.5169 71.5083 44.8875 69.6892 45.4887 67.4453L47.4483 60.132C48.0496 57.8881 50.4207 56.0956 52.8009 55.8133C59.727 54.9918 66.7394 52.2166 72.7467 47.858C79.9928 42.6005 85.1829 35.4698 87.1751 28.0346C89.1674 20.5995 87.7986 13.4688 83.37 8.21133C78.9414 2.9539 71.8156 0.00028569 63.5604 0.000244141Z" fill="black"/>
<path d="M20.2273 53.7922L50.0528 39.3216C51.4402 38.6484 52.8767 39.0479 53.2612 40.2139L54.4655 43.866C55.0015 45.4911 57.43 45.4911 58.8368 43.866L81.8256 17.3098C83.2325 15.6846 82.5626 13.6531 80.6198 13.6531L48.8736 13.6531C46.9308 13.6531 45.1722 15.6846 45.7082 17.3098L46.6708 20.2288C47.0553 21.3948 46.2422 22.8857 44.8547 23.5589L25.8588 32.7753L20.2273 53.7922Z" fill="url(#paint0_linear_1_93)"/>
<path d="M105.114 31.4695L103.808 36.3442C103.433 37.7455 103.6 38.9083 104.309 39.8325C105.049 40.7568 106.206 41.2189 107.78 41.2189C109.571 41.2189 111.193 40.5779 112.648 39.2959C114.102 38.0138 115.137 36.225 115.752 33.9292C116.368 31.6335 116.291 29.8446 115.524 28.5626C114.787 27.2806 113.508 26.6396 111.687 26.6396C110.113 26.6396 108.708 27.1017 107.472 28.0259C106.268 28.9502 105.482 30.0981 105.114 31.4695ZM98.5836 55.843H92.5647L101.612 22.0779H107.353L106.742 24.3587H106.835C106.859 24.2693 107.127 24.0159 107.64 23.5985C108.161 23.1513 109.03 22.6742 110.246 22.1674C111.493 21.6605 112.826 21.4071 114.246 21.4071C117.148 21.4071 119.375 22.5401 120.929 24.806C122.513 27.0719 122.794 30.113 121.771 33.9292C120.741 37.7753 118.873 40.8313 116.167 43.0972C113.468 45.3333 110.622 46.4514 107.628 46.4514C106.023 46.4514 104.757 46.1681 103.828 45.6017C102.938 45.0054 102.357 44.4091 102.085 43.8128L101.984 43.4997H101.891L98.5836 55.843Z" fill="black"/>
<path d="M127.873 45.7805H121.623L130.37 13.1335H136.621L127.873 45.7805Z" fill="black"/>
<path d="M151.55 45.7805H146.504L147.115 43.4997H147.022C147.014 43.5295 146.905 43.6488 146.695 43.8575C146.523 44.0364 146.228 44.2749 145.809 44.5731C145.389 44.8712 144.897 45.1544 144.331 45.4228C143.796 45.6911 143.099 45.9296 142.241 46.1383C141.382 46.347 140.49 46.4514 139.564 46.4514C136.724 46.4514 134.709 45.7955 133.517 44.4836C132.356 43.1718 132.051 41.4872 132.602 39.43C133.146 37.4026 134.178 35.8523 135.701 34.779C137.262 33.6758 139.666 32.7665 142.913 32.0509C145.999 31.3652 147.898 30.8434 148.611 30.4857C149.433 30.0682 149.936 29.5167 150.119 28.8309C150.319 28.0856 150.124 27.4893 149.534 27.0421C148.952 26.565 147.982 26.3265 146.623 26.3265C145.08 26.3265 143.85 26.6545 142.934 27.3104C142.025 27.9365 141.179 28.9055 140.395 30.2173L135.934 28.2048C137.103 26.1476 138.715 24.5078 140.771 23.2854C142.835 22.0332 145.194 21.4071 147.849 21.4071C150.874 21.4071 153.124 22.1674 154.599 23.6879C156.106 25.2085 156.431 27.5638 155.577 30.754L151.55 45.7805ZM143.039 36.0759C141.5 36.4039 140.405 36.8063 139.752 37.2834C139.1 37.7604 138.681 38.3418 138.498 39.0275C138.066 40.6375 139.054 41.4425 141.462 41.4425C143.221 41.4425 144.648 41.1295 145.742 40.5034C146.874 39.8474 147.58 38.9977 147.86 37.9542L148.962 33.8398H148.87C148.605 34.1379 148.414 34.3317 148.297 34.4212C147.714 34.8684 145.962 35.42 143.039 36.0759Z" fill="black"/>
<path d="M159.233 37.3281L162.001 26.9973H158.204L159.523 22.0779H163.458L165.016 16.2641H170.711L169.153 22.0779H175.357L174.039 26.9973H167.927L165.303 36.7914C164.96 38.0735 164.936 38.9679 165.232 39.4748C165.567 39.9518 166.383 40.1903 167.68 40.1903H169.67L168.173 45.7805H165.626C162.354 45.7805 160.265 45.1097 159.359 43.7681C158.476 42.4562 158.434 40.3096 159.233 37.3281Z" fill="black"/>
<path d="M189.891 37.5964L193.145 41.1742C189.703 44.6923 185.851 46.4514 181.592 46.4514C178.166 46.4514 175.676 45.3184 174.122 43.0525C172.569 40.7866 172.303 37.7455 173.326 33.9292C174.341 30.1428 176.216 27.1166 178.953 24.8507C181.76 22.555 184.784 21.4071 188.025 21.4071C191.296 21.4071 193.674 22.555 195.158 24.8507C196.681 27.1166 196.935 30.1428 195.92 33.9292L195.453 35.6734H178.97C178.575 37.4921 178.709 38.8934 179.372 39.8773C180.073 40.8313 181.241 41.3084 182.877 41.3084C184.174 41.3084 185.349 41.0102 186.404 40.4139C187.498 39.7878 188.66 38.8486 189.891 37.5964ZM180.133 31.3354H190.781C191.035 29.8148 190.795 28.6371 190.061 27.8023C189.367 26.9377 188.233 26.5054 186.659 26.5054C185.208 26.5054 183.88 26.9675 182.676 27.8918C181.479 28.7862 180.631 29.9341 180.133 31.3354Z" fill="black"/>
<path d="M213.96 36.3442L215.267 31.4695C215.634 30.0981 215.448 28.9502 214.708 28.0259C213.998 27.1017 212.857 26.6396 211.283 26.6396C209.461 26.6396 207.824 27.2806 206.369 28.5626C204.945 29.8446 203.925 31.6335 203.31 33.9292C202.695 36.225 202.771 38.0138 203.539 39.2959C204.307 40.5779 205.586 41.2189 207.376 41.2189C208.95 41.2189 210.34 40.7568 211.544 39.8325C212.779 38.9083 213.585 37.7455 213.96 36.3442ZM194.581 50.6105L199.875 47.6141C200.248 48.9856 200.803 49.9695 201.538 50.5658C202.273 51.1621 203.335 51.4602 204.724 51.4602C208.182 51.4602 210.353 49.8055 211.24 46.4961L212.043 43.4997H211.95C211.264 44.3345 210.258 45.0352 208.933 45.6017C207.64 46.1681 206.344 46.4514 205.048 46.4514C201.9 46.4514 199.556 45.3482 198.018 43.142C196.487 40.9059 196.245 37.835 197.291 33.9292C198.314 30.113 200.225 27.0719 203.023 24.806C205.791 22.5401 208.672 21.4071 211.666 21.4071C214.475 21.4071 216.372 22.391 217.357 24.3587H217.45L218.061 22.0779H223.802L217.451 45.7805C216.524 49.239 214.764 51.8925 212.169 53.7411C209.575 55.5896 206.642 56.5138 203.37 56.5138C200.87 56.5138 198.865 55.9921 197.354 54.9485C195.844 53.905 194.919 52.459 194.581 50.6105Z" fill="black"/>
<path d="M240.856 45.7805H235.809L236.42 43.4997H236.328C236.32 43.5295 236.211 43.6488 236.001 43.8575C235.829 44.0364 235.534 44.2749 235.114 44.5731C234.695 44.8712 234.202 45.1544 233.637 45.4228C233.102 45.6911 232.405 45.9296 231.547 46.1383C230.688 46.347 229.796 46.4514 228.87 46.4514C226.03 46.4514 224.014 45.7955 222.823 44.4836C221.662 43.1718 221.357 41.4872 221.908 39.43C222.451 37.4026 223.484 35.8523 225.006 34.779C226.567 33.6758 228.972 32.7665 232.219 32.0509C235.304 31.3652 237.204 30.8434 237.917 30.4857C238.738 30.0682 239.241 29.5167 239.425 28.8309C239.625 28.0856 239.43 27.4893 238.839 27.0421C238.257 26.565 237.287 26.3265 235.929 26.3265C234.386 26.3265 233.156 26.6545 232.239 27.3104C231.331 27.9365 230.485 28.9055 229.701 30.2173L225.24 28.2048C226.408 26.1476 228.021 24.5078 230.077 23.2854C232.141 22.0332 234.5 21.4071 237.155 21.4071C240.18 21.4071 242.43 22.1674 243.905 23.6879C245.411 25.2085 245.737 27.5638 244.882 30.754L240.856 45.7805ZM232.344 36.0759C230.806 36.4039 229.71 36.8063 229.058 37.2834C228.405 37.7604 227.987 38.3418 227.803 39.0275C227.372 40.6375 228.36 41.4425 230.768 41.4425C232.527 41.4425 233.954 41.1295 235.047 40.5034C236.18 39.8474 236.886 38.9977 237.166 37.9542L238.268 33.8398H238.175C237.91 34.1379 237.72 34.3317 237.603 34.4212C237.02 34.8684 235.267 35.42 232.344 36.0759Z" fill="black"/>
<path d="M252.385 45.7805H245.487L247.188 39.43H254.087L252.385 45.7805Z" fill="black"/>
<path d="M263.478 45.7805H257.459L263.811 22.0779H269.829L263.478 45.7805ZM270.752 18.6343H264.733L266.207 13.1335H272.226L270.752 18.6343Z" fill="black"/>
<path d="M275.6 39.3406C276.221 40.5928 277.411 41.2189 279.171 41.2189C280.93 41.2189 282.456 40.5928 283.748 39.3406C285.088 38.0287 286.065 36.225 286.68 33.9292C287.303 31.6037 287.273 29.8148 286.59 28.5626C285.977 27.2806 284.806 26.6396 283.077 26.6396C281.38 26.6396 279.854 27.2657 278.5 28.5179C277.168 29.7999 276.191 31.6037 275.568 33.9292C274.945 36.2548 274.955 38.0586 275.6 39.3406ZM269.642 33.9292C270.68 30.0533 272.61 26.9973 275.432 24.7612C278.253 22.5251 281.269 21.4071 284.479 21.4071C287.689 21.4071 290.106 22.5251 291.729 24.7612C293.352 26.9973 293.645 30.0533 292.606 33.9292C291.544 37.8946 289.641 40.9655 286.897 43.142C284.114 45.3482 281.071 46.4514 277.769 46.4514C274.466 46.4514 272.014 45.3482 270.414 43.142C268.837 40.9655 268.579 37.8946 269.642 33.9292Z" fill="black"/>
<defs>
<linearGradient id="paint0_linear_1_93" x1="83.0504" y1="13.6564" x2="32.6524" y2="30.6736" gradientUnits="userSpaceOnUse">
<stop stop-color="#2B99FF"/>
<stop offset="1" stop-color="#725BFF"/>
</linearGradient>
</defs>
</svg>
