<svg width="21" height="25" viewBox="0 0 21 25" fill="none" xmlns="http://www.w3.org/2000/svg">
<g clip-path="url(#clip0_1085_68)">
<path d="M0.487793 5.50391L3.48779 10.8662V14.1371L0.491302 19.4888L0.487793 5.50391Z" fill="#5B57A2"/>
<path d="M12.0068 8.91582L14.8179 7.19287L20.571 7.1875L12.0068 12.434V8.91582Z" fill="#D90751"/>
<path d="M11.9909 5.47442L12.0068 12.5739L8.99976 10.7263V0.11377L11.9909 5.47442Z" fill="#FAB718"/>
<path d="M20.571 7.1887L14.8177 7.19407L11.9909 5.47442L8.99976 0.11377L20.571 7.1887Z" fill="#ED6F26"/>
<path d="M12.0068 19.5207V16.0762L8.99976 14.2637L9.00141 24.8867L12.0068 19.5207Z" fill="#63B22F"/>
<path d="M14.8107 17.8113L3.48758 10.8662L0.487793 5.50391L20.5586 17.8043L14.8107 17.8113Z" fill="#1487C9"/>
<path d="M9.00146 24.8884L12.0064 19.5224L14.8105 17.8151L20.5584 17.8081L9.00146 24.8884Z" fill="#017F36"/>
<path d="M0.491943 19.4896L9.02476 14.2626L6.15606 12.5024L3.48843 14.1379L0.491943 19.4896Z" fill="#984995"/>
</g>
<defs>
<clipPath id="clip0_1085_68">
<rect width="20.0248" height="24.7729" fill="white" transform="translate(0.487549 0.11377)"/>
</clipPath>
</defs>
</svg>
