<svg width="19" height="19" viewBox="0 0 19 19" fill="none" xmlns="http://www.w3.org/2000/svg">
<path d="M9.5 0.75C14.3326 0.75 18.25 4.66738 18.25 9.5C18.25 14.3326 14.3326 18.25 9.5 18.25C4.66738 18.25 0.75 14.3326 0.75 9.5C0.75 4.66738 4.66738 0.75 9.5 0.75ZM9.5 4.25C9.26794 4.25 9.04538 4.34219 8.88128 4.50628C8.71719 4.67038 8.625 4.89294 8.625 5.125V9.5C8.62505 9.73205 8.71727 9.95457 8.88138 10.1186L11.5064 12.7436C11.6714 12.903 11.8924 12.9912 12.1219 12.9892C12.3513 12.9872 12.5707 12.8952 12.733 12.733C12.8952 12.5707 12.9872 12.3513 12.9892 12.1219C12.9912 11.8924 12.903 11.6714 12.7436 11.5064L10.375 9.13775V5.125C10.375 4.89294 10.2828 4.67038 10.1187 4.50628C9.95462 4.34219 9.73206 4.25 9.5 4.25Z" fill="black"/>
</svg>
